<?xml version="1.0" standalone="no"?>
<!DOCTYPE svg PUBLIC "-//W3C//DTD SVG 20010904//EN"
 "http://www.w3.org/TR/2001/REC-SVG-20010904/DTD/svg10.dtd">
<svg version="1.0" xmlns="http://www.w3.org/2000/svg"
 width="1280.000000pt" height="1090.000000pt" viewBox="0 0 1280.000000 1090.000000"
 preserveAspectRatio="xMidYMid meet">
<metadata>
Created by potrace 1.15, written by Peter Selinger 2001-2017
</metadata>
<g transform="translate(0.000000,1090.000000) scale(0.100000,-0.100000)"
fill="#d4af37" stroke="none">
<path d="M2415 9983 c-69 -6 -183 -37 -230 -63 -27 -15 -61 -30 -75 -33 -37
-9 -170 -141 -260 -257 -19 -25 -37 -47 -40 -50 -19 -16 -70 -102 -83 -140 -8
-25 -37 -89 -65 -142 -27 -53 -52 -109 -55 -125 -17 -85 -28 -126 -40 -150 -7
-16 -19 -71 -26 -123 -7 -52 -19 -117 -27 -145 -18 -58 -33 -136 -44 -220 -5
-33 -16 -96 -24 -140 -30 -155 -71 -776 -61 -940 28 -481 71 -610 240 -724 73
-49 151 -89 235 -122 87 -34 296 -98 390 -119 126 -29 233 -60 245 -71 17 -16
-16 -29 -76 -29 -112 0 -288 -33 -433 -81 -50 -16 -118 -36 -151 -45 -104 -26
-195 -65 -269 -115 -39 -26 -83 -50 -98 -54 -14 -4 -53 -33 -86 -65 -34 -32
-69 -61 -79 -64 -17 -6 -33 -29 -87 -127 -24 -44 -47 -143 -76 -329 -7 -41
-20 -102 -30 -135 -36 -116 -50 -238 -30 -250 6 -3 10 -20 10 -37 0 -17 15
-65 34 -107 25 -57 35 -96 40 -157 8 -98 28 -159 100 -307 76 -156 96 -210 96
-266 0 -81 57 -217 113 -268 58 -54 75 -76 166 -218 43 -66 102 -125 180 -178
72 -48 207 -117 231 -117 7 0 37 -16 68 -34 32 -19 91 -48 132 -65 42 -16 125
-50 185 -76 138 -59 327 -111 470 -130 138 -19 202 -19 274 -1 31 8 69 17 84
20 18 4 27 12 24 19 -5 14 58 40 135 56 69 15 190 62 225 88 17 12 43 23 58
23 35 0 100 35 141 75 19 19 51 39 72 44 20 6 62 33 92 59 30 27 75 59 100 72
26 13 95 72 160 139 64 64 140 136 170 161 30 25 57 47 60 50 3 4 15 13 27 21
12 8 43 44 69 79 26 36 50 67 53 70 4 3 36 43 73 90 36 47 75 96 87 109 11 13
21 27 21 30 0 3 15 22 33 41 18 19 46 53 62 75 25 34 130 160 145 175 21 20
73 97 105 155 31 57 88 138 115 165 20 20 89 109 99 128 6 12 18 22 26 22 17
0 20 -26 5 -35 -5 -3 -16 -27 -24 -53 -18 -59 -152 -343 -165 -352 -6 -3 -27
-37 -47 -75 -20 -39 -49 -90 -64 -115 -27 -42 -51 -92 -143 -292 -19 -42 -59
-111 -87 -153 -29 -43 -57 -94 -62 -114 -6 -20 -13 -38 -17 -41 -4 -3 -31 -41
-61 -85 -61 -91 -100 -170 -100 -202 0 -12 -25 -70 -55 -129 -30 -60 -55 -114
-55 -121 0 -7 -20 -53 -44 -101 -35 -69 -47 -109 -60 -188 -9 -56 -16 -116
-16 -134 0 -48 29 -100 65 -117 30 -14 35 -14 76 6 52 24 131 79 175 121 18
16 42 34 55 40 13 6 40 33 59 59 19 27 47 57 62 67 15 11 42 42 60 69 17 28
35 52 39 55 3 3 19 30 34 60 15 30 47 80 70 110 24 30 68 105 99 165 31 61 80
149 109 196 29 47 81 148 116 225 34 76 73 155 86 174 13 19 47 83 74 142 28
58 57 113 66 121 8 9 41 65 72 126 32 61 72 137 89 169 38 73 124 167 124 137
0 -11 -18 -47 -40 -80 -22 -33 -40 -67 -40 -76 0 -9 -13 -45 -29 -80 -76 -168
-145 -388 -245 -779 -30 -118 -66 -249 -80 -290 -44 -134 -66 -215 -66 -246 0
-17 -8 -57 -19 -90 -40 -127 -64 -312 -64 -504 0 -259 47 -417 240 -804 55
-110 181 -319 202 -336 3 -3 24 -27 45 -54 22 -26 49 -58 61 -71 76 -75 223
-171 370 -239 63 -30 107 -59 148 -98 40 -39 82 -67 142 -94 47 -21 85 -43 85
-50 0 -6 21 -20 48 -30 57 -22 148 -23 284 -4 91 13 103 12 218 -10 147 -28
166 -25 303 52 l92 53 111 -3 c150 -4 199 14 295 109 49 49 77 69 95 69 14 0
58 9 97 20 40 10 83 21 97 24 14 3 52 30 85 61 33 30 64 55 69 55 4 0 73 64
152 142 79 78 152 142 163 143 28 2 84 67 128 150 l38 70 -1 200 c0 165 -4
219 -22 310 -37 181 -113 408 -189 560 -24 47 -136 234 -170 282 -12 18 -12
23 -2 23 7 0 62 -49 122 -110 60 -60 113 -110 119 -110 5 0 64 -55 130 -122
118 -119 195 -182 308 -249 51 -31 62 -33 155 -36 55 -2 123 -4 150 -5 89 -3
218 17 280 43 11 4 40 15 65 23 103 33 438 208 456 237 3 5 14 9 24 9 10 0 39
16 64 35 26 19 51 35 56 35 6 0 10 7 10 15 0 8 -7 15 -15 15 -8 0 -15 6 -15
14 0 9 22 21 58 31 31 9 64 18 73 21 9 2 56 42 104 89 48 46 94 87 104 90 21
6 354 359 400 423 12 17 30 34 41 37 10 3 21 14 24 23 4 10 29 42 56 71 28 29
50 57 50 62 0 4 10 19 23 31 85 89 199 267 228 358 7 19 15 37 19 40 4 3 15
19 23 37 61 117 82 302 49 428 -6 22 -16 60 -22 85 -6 25 -17 52 -24 60 -8 8
-21 41 -30 73 -14 47 -23 62 -51 78 -23 14 -39 35 -51 65 -18 47 -66 104 -87
104 -8 0 -39 26 -70 58 -53 53 -124 115 -208 179 -21 16 -65 49 -99 75 -34 26
-90 62 -126 79 -35 18 -64 36 -64 40 0 5 -25 20 -55 34 -31 13 -68 33 -84 44
-15 11 -40 23 -55 27 -15 3 -50 22 -78 42 -30 20 -77 41 -112 49 -34 7 -95 31
-137 53 -42 21 -108 48 -147 60 -39 11 -74 25 -77 30 -3 6 -38 10 -77 10 -55
0 -80 5 -117 24 -25 14 -59 27 -76 29 -16 3 -77 14 -135 26 -58 12 -118 21
-133 21 -16 0 -37 5 -48 11 -20 10 -157 31 -329 49 -47 5 -116 14 -155 20
-272 43 -1013 43 -1325 0 -41 -6 -111 -15 -155 -20 -44 -5 -109 -14 -145 -20
-36 -6 -94 -15 -130 -20 -36 -5 -94 -14 -130 -19 -36 -6 -88 -11 -117 -11 -28
0 -54 -4 -58 -9 -3 -5 -20 -13 -37 -17 -18 -3 -42 -12 -53 -20 -21 -13 -134
-52 -218 -74 -26 -7 -50 -17 -53 -21 -11 -18 -35 -8 -54 24 -23 38 -25 47 -7
47 19 0 46 26 100 97 58 75 67 100 70 177 2 47 -3 71 -21 105 -13 24 -20 47
-15 51 9 8 183 53 273 70 85 16 274 44 405 60 216 26 353 44 455 61 36 5 110
14 165 19 55 4 132 14 170 22 39 7 106 11 150 10 158 -6 211 -6 285 2 175 18
274 124 159 170 -32 13 -49 14 -77 6 -20 -5 -51 -10 -69 -10 -18 0 -42 -4 -55
-9 -13 -5 -41 -14 -63 -21 -22 -7 -78 -27 -125 -45 -138 -54 -285 -88 -470
-106 -180 -18 -253 -27 -315 -38 -186 -31 -253 -40 -375 -51 -74 -7 -191 -25
-260 -40 -196 -44 -214 -46 -240 -20 -19 19 -21 60 -2 60 4 0 20 10 36 23 25
21 27 26 17 46 -10 18 -8 34 10 92 12 38 19 72 16 75 -10 10 -44 -19 -67 -56
-13 -20 -40 -47 -60 -60 -20 -13 -48 -40 -61 -61 -13 -22 -29 -39 -36 -39 -17
0 -17 42 -1 58 10 10 10 15 -1 22 -12 7 -12 12 2 34 11 16 15 35 11 50 -3 14
2 40 15 67 23 47 26 65 12 73 -18 11 -41 -7 -49 -38 -6 -22 -17 -34 -39 -41
-39 -13 -61 -31 -79 -67 -8 -15 -21 -28 -30 -28 -8 0 -31 -12 -50 -26 -19 -15
-36 -25 -37 -23 -4 7 -27 70 -76 209 -26 74 -95 245 -153 380 -121 282 -165
393 -202 505 -71 220 -107 320 -125 339 -10 12 -24 39 -31 61 -30 94 -117 285
-140 305 -3 3 -19 22 -35 43 -39 53 -58 61 -95 42 -25 -13 -30 -21 -30 -54 0
-63 86 -256 135 -301 15 -14 60 -74 100 -135 41 -60 91 -135 113 -165 21 -31
49 -87 62 -125 40 -122 95 -258 217 -535 61 -137 141 -331 153 -370 5 -14 22
-63 39 -110 17 -47 31 -95 31 -107 0 -25 -41 -61 -79 -69 -65 -15 -109 -53
-141 -118 -16 -35 -30 -68 -30 -74 0 -40 -73 -152 -99 -152 -21 0 -32 33 -30
92 4 127 -34 267 -149 548 -39 96 -130 279 -161 325 -12 17 -21 44 -21 62 0
28 -16 55 -37 65 -5 1 -28 37 -52 78 -24 41 -56 95 -71 120 -15 25 -47 79 -71
120 -47 81 -158 252 -168 260 -4 3 -22 25 -41 50 -19 25 -42 52 -50 60 -9 8
-45 58 -80 110 -36 52 -67 97 -70 100 -3 3 -17 21 -30 40 -13 19 -27 37 -30
40 -3 3 -21 25 -40 50 -19 25 -37 47 -40 50 -3 3 -23 27 -44 54 -22 26 -49 58
-60 70 -12 12 -59 64 -106 116 -47 52 -110 120 -141 150 -30 30 -71 75 -89
100 -50 65 -119 129 -165 152 -22 12 -58 42 -80 67 -83 96 -204 211 -295 281
-25 19 -47 37 -50 41 -10 13 -246 167 -287 188 -24 12 -84 47 -135 78 -92 56
-176 93 -210 93 -10 0 -47 14 -81 30 -35 17 -69 30 -76 30 -7 0 -46 11 -87 25
-41 14 -97 25 -125 25 -27 0 -62 6 -77 14 -25 13 -184 17 -287 9z"/>
</g>
</svg>
